<svg id="Ebene_1" data-name="Ebene 1" xmlns="http://www.w3.org/2000/svg" xmlns:xlink="http://www.w3.org/1999/xlink" viewBox="0 0 1725.87 229.57"><defs><style>.cls-1{fill:#1d1d1b;}.cls-2{fill:url(#Unbenannter_Verlauf_2);}</style><linearGradient id="Unbenannter_Verlauf_2" x1="1373.03" y1="140.08" x2="1523.54" y2="140.08" gradientUnits="userSpaceOnUse"><stop offset="0" stop-color="#64afe2"/><stop offset="1" stop-color="#1b5197"/></linearGradient></defs><path class="cls-1" d="M458.39,172.41H405c-4.19,0-7.85,2.88-7.85,7.33v2.88c0,4.45,3.66,7.32,8.11,7.32h46.3c11.25,0,17,6.54,17,16.75v14a28.18,28.18,0,0,0-11.47-2.93l-36.67,0c-22.5,0-33.75,13.86-33.75,30.87v17.79c0,17,11.25,30.87,33.75,30.87l36.67-.25s8.17,0,14.7-4.94l.43.74a7.33,7.33,0,0,0,5.76,3.66h3.66a6.25,6.25,0,0,0,6.28-6.54V201.19C488,186.28,474.61,172.41,458.39,172.41Zm10.2,93.14A13.46,13.46,0,0,1,455,278.9H419.67a13.46,13.46,0,0,1-13.61-13.35V249.33A13.46,13.46,0,0,1,419.67,236H455a13.46,13.46,0,0,1,13.6,13.34Z" transform="translate(-124.29 -67.64)"/><path class="cls-1" d="M559.11,119.57h-3.66a7.71,7.71,0,0,0-7.85,7.85V288.58a7.71,7.71,0,0,0,7.85,7.84h3.66a7.87,7.87,0,0,0,7.85-7.84V127.42A7.87,7.87,0,0,0,559.11,119.57Z" transform="translate(-124.29 -67.64)"/><path class="cls-1" d="M203,172.41l-46.33,0s-9,0-15.7,5.75l-1-2.06a6.75,6.75,0,0,0-5.76-3.67h-3.92a6.31,6.31,0,0,0-6,6.28V288.58a7.71,7.71,0,0,0,7.85,7.84h3.66a7.87,7.87,0,0,0,7.85-7.84V206.69c0-10.21,6.54-16.75,16.74-16.75H203c4.45,0,7.85-2.87,7.85-7.32v-2.88C210.89,175.29,207.49,172.41,203,172.41Z" transform="translate(-124.29 -67.64)"/><path class="cls-1" d="M761.09,172.94l-4.45-1.05c-3.92-1-7.32.26-8.63,6.28L731.79,250.9c-2.88,12.82-5,28.78-5,28.78h-.53s-2.09-10.2-6-22.5l-12.82-39c-2.1-6-6.54-8.37-10.21-8.37h-8.89c-3.66,0-8.11,2.35-10.21,8.37l-12.81,39c-3.93,12.3-6,22.5-6,22.5h-.53s-2.09-16-5-28.78L637.6,178.17c-1.3-6-4.71-7.32-8.63-6.28l-4.45,1.05c-4.71,1-6.54,5-5.49,9.16l24.33,103.6c1.31,5.23,6.28,10.72,12,10.72h6.54c5,0,9.42-3.92,11.52-10.2l19.36-59.91,19.36,59.91c2.09,6.28,6.54,10.2,11.51,10.2h6.54c5.75,0,10.72-5.49,12-10.72l24.33-103.6C767.63,177.91,765.8,174,761.09,172.94Z" transform="translate(-124.29 -67.64)"/><path class="cls-1" d="M314.49,172.41H273.42c-16.22,0-30.09,12.82-30.09,28.78V266.6c0,16.22,13.34,29.82,28.52,29.82H315.8c4.45,0,7.85-2.87,7.85-7.32v-2.88c0-4.45-3.4-7.32-7.85-7.32H279.7c-11.51,0-17-6.28-17-16V242.27h66.72c8.11,0,15.17-4.45,15.17-15.7V201.19C344.58,185.23,330.71,172.41,314.49,172.41Zm10.73,53.64H262.69v-22a14.07,14.07,0,0,1,14.13-14.13h34.27a14.07,14.07,0,0,1,14.13,14.13Z" transform="translate(-124.29 -67.64)"/><path class="cls-1" d="M1820.07,172.41H1779c-16.22,0-30.09,12.82-30.09,28.78V266.6c0,16.22,13.34,29.82,28.52,29.82h44c4.45,0,7.85-2.87,7.85-7.32v-2.88c0-4.45-3.4-7.32-7.85-7.32h-36.1c-11.51,0-17-6.28-17-16V242.27H1835c8.11,0,15.17-4.45,15.17-15.7V201.19C1850.16,185.23,1836.29,172.41,1820.07,172.41Zm10.73,53.64h-62.53v-22a14.07,14.07,0,0,1,14.13-14.13h34.27a14.07,14.07,0,0,1,14.13,14.13Z" transform="translate(-124.29 -67.64)"/><path class="cls-1" d="M1265,119.57h-3.66a7.87,7.87,0,0,0-7.85,7.85v47.05a28.17,28.17,0,0,0-11.81-3.1l-36.33.26c-20.41,0-33.75,11.77-33.75,30.87v63.84c0,19.1,13.34,30.87,33.75,30.87l36.33-.25s8.4,0,15-5.16l.5,1a7.33,7.33,0,0,0,5.76,3.66h3.92c3.93,0,6-3.14,6-6.54V127.42A7.71,7.71,0,0,0,1265,119.57ZM1253.48,263.2a15.75,15.75,0,0,1-15.7,15.7h-31.13a15.75,15.75,0,0,1-15.7-15.7V205.64a15.75,15.75,0,0,1,15.7-15.7h31.13a15.75,15.75,0,0,1,15.7,15.7Z" transform="translate(-124.29 -67.64)"/><path class="cls-1" d="M1662.31,171.63h-35.8s-8.78,0-15.41,5.52l-.59-1.07a6.23,6.23,0,0,0-6-3.67h-3.66c-3.4,0-6,2.62-6,6.55V288.58a7.71,7.71,0,0,0,7.85,7.84h3.66a7.87,7.87,0,0,0,7.85-7.84V205.64a15.75,15.75,0,0,1,15.7-15.7H1661a15.75,15.75,0,0,1,15.7,15.7v82.94a7.71,7.71,0,0,0,7.85,7.84h3.66a7.87,7.87,0,0,0,7.85-7.84V202.5C1696.06,183.4,1682.72,171.63,1662.31,171.63Z" transform="translate(-124.29 -67.64)"/><path class="cls-1" d="M1104.09,119.57h-3.66a7.71,7.71,0,0,0-7.85,7.85V288.58a7.71,7.71,0,0,0,7.85,7.84h3.66a7.87,7.87,0,0,0,7.85-7.84V127.42A7.87,7.87,0,0,0,1104.09,119.57Z" transform="translate(-124.29 -67.64)"/><path class="cls-1" d="M882.49,172.41H841.94c-16.22,0-30.09,12.82-30.09,28.78v65.93a29.2,29.2,0,0,0,29,29.3h42.64c16,0,29-13.34,29-29.3V201.19C912.57,185.23,898.71,172.41,882.49,172.41Zm10.72,92.1a14.35,14.35,0,0,1-14.38,14.39H845.34a14.13,14.13,0,0,1-14.13-14.39V204.33a14.35,14.35,0,0,1,14.39-14.39h33.23a14.51,14.51,0,0,1,14.38,14.39Z" transform="translate(-124.29 -67.64)"/><path class="cls-1" d="M1045.48,172.41l-45.63-.23s-9.47,0-16.16,6.16l-1.26-2.26a6.73,6.73,0,0,0-5.75-3.67h-3.93a6.32,6.32,0,0,0-6,6.28V288.58a7.71,7.71,0,0,0,7.85,7.84h3.67a7.87,7.87,0,0,0,7.85-7.84V206.69c0-10.21,6.54-16.75,16.74-16.75h42.64c4.45,0,7.85-2.87,7.85-7.32v-2.88C1053.33,175.29,1049.93,172.41,1045.48,172.41Z" transform="translate(-124.29 -67.64)"/><path class="cls-1" d="M1513.12,172.45v18.4a14.52,14.52,0,0,1,9.48,13.48v60.18a14.35,14.35,0,0,1-14.39,14.39h-33.49a14.13,14.13,0,0,1-14.13-14.39v-38.7h-19.36v41.31a29.2,29.2,0,0,0,29,29.3h42.65c16,0,29-13.34,29-29.3V201.19C1542,185.64,1528.8,173.08,1513.12,172.45Z" transform="translate(-124.29 -67.64)"/><path class="cls-2" d="M1379.58,96.27c-6.1,17.91-6,28.38-6,28.38s3.47,2,5.83,3.54c2.07,1.32,5.35,3.84,5.35,3.84a58.54,58.54,0,0,0-6.64,1.62c-2.79.9-5,1.55-5,1.55s-.92,15.81,2.88,30.38a121.57,121.57,0,0,0,8.42,23.34,102.58,102.58,0,0,0,16.28-1,100.4,100.4,0,0,0,14.16-3.62,59,59,0,0,0,4.55,13.63,131.12,131.12,0,0,0,8.22,14.55,153.44,153.44,0,0,0,25.64-6.58,123.72,123.72,0,0,0,26.07-13.25s-.77-3.07-1.63-5.88a52.87,52.87,0,0,0-2.42-6.23s3.22,1.13,5.42,2c3.34,1.34,7.21,3.44,7.21,3.44s8.5-6.08,20.25-21.36a109.37,109.37,0,0,0,15.36-27.84A80.71,80.71,0,0,0,1479.81,124a88.18,88.18,0,0,0-37.49,9,85.29,85.29,0,0,0-13.58-36.62c-14.76-22.18-34.1-28.77-34.1-28.77s-8.65,9.85-15.06,28.63" transform="translate(-124.29 -67.64)"/></svg>